<?xml version="1.0" encoding="UTF-8"?>
<svg width="34px" height="34px" viewBox="0 0 34 34" version="1.1" xmlns="http://www.w3.org/2000/svg" xmlns:xlink="http://www.w3.org/1999/xlink">
    <!-- Generator: Sketch 52.6 (67491) - http://www.bohemiancoding.com/sketch -->
    <title>Path</title>
    <desc>Created with Sketch.</desc>
    <g id="Web" stroke="none" stroke-width="1" fill="none" fill-rule="evenodd">
        <g id="6-6-FAQ" transform="translate(-1261.000000, -445.000000)" fill="#0636CC" fill-rule="nonzero">
            <g id="Group-4" transform="translate(632.000000, 445.000000)">
                <g id="plus" transform="translate(629.000000, 0.000000)">
                    <path d="M32.2746816,15.2880562 L18.6855057,15.2880562 L18.6855057,1.69856921 C18.6855057,0.761105845 17.9243999,0 16.9866254,0 C16.0491621,0 15.2880562,0.761105845 15.2880562,1.69856921 L15.2880562,15.2880562 L1.69856921,15.2880562 C0.761105845,15.2880562 -1.59747313e-15,16.0491621 -1.59747313e-15,16.9866254 C-1.59747313e-15,17.9243999 0.761105845,18.6855057 1.69856921,18.6855057 L15.2880562,18.6855057 L15.2880562,32.2746816 C15.2880562,33.2124561 16.0491621,33.9735619 16.9866254,33.9735619 C17.9243999,33.9735619 18.6855057,33.2124561 18.6855057,32.2746816 L18.6855057,18.6855057 L32.2746816,18.6855057 C33.2124561,18.6855057 33.9735619,17.9243999 33.9735619,16.9866254 C33.9735619,16.0491621 33.2124561,15.2880562 32.2746816,15.2880562 Z" id="Path"></path>
                </g>
            </g>
        </g>
    </g>
</svg>